<mxfile host="app.diagrams.net" agent="Mozilla/5.0 (Windows NT 10.0; Win64; x64) AppleWebKit/537.36 (KHTML, like Gecko) Chrome/139.0.0.0 Safari/537.36" version="28.1.1" pages="2">
  <diagram id="PTXYZ" name="High-Level Architecture">
    <mxGraphModel dx="3846" dy="1289" grid="1" gridSize="10" guides="1" tooltips="1" connect="1" arrows="1" fold="1" page="1" pageScale="1" pageWidth="1600" pageHeight="1200" math="0" shadow="0">
      <root>
        <mxCell id="0" />
        <mxCell id="1" parent="0" />
        <mxCell id="D2dvSJBulsznXSkZjUXN-6" value="" style="rounded=0;whiteSpace=wrap;html=1;fillColor=light-dark(#FFFFFF,#707070);" vertex="1" parent="1">
          <mxGeometry x="768.5" y="765" width="633" height="175" as="geometry" />
        </mxCell>
        <mxCell id="7igyXKNayghsl_1RYZRh-17" value="" style="whiteSpace=wrap;html=1;aspect=fixed;strokeColor=light-dark(#000000,#797979);fillColor=light-dark(#000000,#6D6D6D);" vertex="1" parent="1">
          <mxGeometry x="780" y="70" width="610" height="610" as="geometry" />
        </mxCell>
        <mxCell id="mobile" value="Mobile Apps (iOS/Android)" style="shape=rectangle;whiteSpace=wrap;rounded=1;fillColor=#dae8fc;strokeColor=#6c8ebf;" parent="1" vertex="1">
          <mxGeometry x="-122" y="148" width="180" height="60" as="geometry" />
        </mxCell>
        <mxCell id="bio" value="Login Biometrik (Device)" style="shape=rectangle;whiteSpace=wrap;rounded=1;fillColor=#d5e8d4;strokeColor=#82b366;" parent="1" vertex="1">
          <mxGeometry x="-122" y="249" width="180" height="50" as="geometry" />
        </mxCell>
        <mxCell id="keychain" value="OS Keychain &amp; Secure Enclave" style="shape=rectangle;whiteSpace=wrap;rounded=1;fillColor=#fff2cc;strokeColor=#d6b656;" parent="1" vertex="1">
          <mxGeometry x="-122" y="344" width="180" height="50" as="geometry" />
        </mxCell>
        <mxCell id="apigw" value="API Gateway" style="shape=rectangle;whiteSpace=wrap;rounded=1;fillColor=#f8cecc;strokeColor=#b85450;" parent="1" vertex="1">
          <mxGeometry x="337" y="150" width="200" height="60" as="geometry" />
        </mxCell>
        <mxCell id="auth" value="Authentication&#xa;(OIDC, MFA)" style="shape=rectangle;whiteSpace=wrap;rounded=1;fillColor=#e1d5e7;strokeColor=#9673a6;" parent="1" vertex="1">
          <mxGeometry x="114" y="150" width="150" height="60" as="geometry" />
        </mxCell>
        <mxCell id="userkyc" value="User &amp; KYC Services" style="shape=rectangle;whiteSpace=wrap;rounded=1;fillColor=#e1d5e7;strokeColor=#9673a6;" parent="1" vertex="1">
          <mxGeometry x="855" y="149" width="200" height="60" as="geometry" />
        </mxCell>
        <mxCell id="loan" value="Loan Process Services&#xa; (Application, Offer, Approval)" style="shape=rectangle;whiteSpace=wrap;rounded=1;fillColor=#e1d5e7;strokeColor=#9673a6;" parent="1" vertex="1">
          <mxGeometry x="855" y="264" width="200" height="60" as="geometry" />
        </mxCell>
        <mxCell id="billing" value="Billing &amp; Payment Services" style="shape=rectangle;whiteSpace=wrap;rounded=1;fillColor=#e1d5e7;strokeColor=#9673a6;" parent="1" vertex="1">
          <mxGeometry x="855" y="526" width="200" height="60" as="geometry" />
        </mxCell>
        <mxCell id="obs" value="Control &amp; Monitoring Application&#xa;(Logs, Metrics, Traces, SIEM)" style="shape=rectangle;whiteSpace=wrap;rounded=1;fillColor=#cccccc;strokeColor=#333333;" parent="1" vertex="1">
          <mxGeometry x="1492" y="254" width="260" height="80" as="geometry" />
        </mxCell>
        <mxCell id="edge2" style="edgeStyle=elbowEdgeStyle;endArrow=block;rounded=0;" parent="1" source="bio" target="keychain" edge="1">
          <mxGeometry relative="1" as="geometry" />
        </mxCell>
        <mxCell id="Rmtr-ritD28WPV-W0xzt-1" value="" style="endArrow=classic;html=1;rounded=0;entryX=0.75;entryY=1;entryDx=0;entryDy=0;exitX=0.75;exitY=0;exitDx=0;exitDy=0;dashed=1;" edge="1" parent="1" source="keychain" target="mobile">
          <mxGeometry width="50" height="50" relative="1" as="geometry">
            <mxPoint x="178" y="328" as="sourcePoint" />
            <mxPoint x="228" y="278" as="targetPoint" />
          </mxGeometry>
        </mxCell>
        <mxCell id="Rmtr-ritD28WPV-W0xzt-2" value="&lt;font style=&quot;font-size: 10px;&quot;&gt;HTTPS (TLS)&lt;/font&gt;" style="text;strokeColor=none;align=center;fillColor=none;html=1;verticalAlign=middle;whiteSpace=wrap;rounded=0;" vertex="1" parent="1">
          <mxGeometry x="261" y="156" width="80" height="30" as="geometry" />
        </mxCell>
        <mxCell id="Rmtr-ritD28WPV-W0xzt-3" value="Microservices" style="shape=rectangle;whiteSpace=wrap;rounded=1;fillColor=light-dark(#F8CECC,#A08643);strokeColor=light-dark(#b85450, #f3d78c);" vertex="1" parent="1">
          <mxGeometry x="627" y="150" width="140" height="60" as="geometry" />
        </mxCell>
        <mxCell id="Rmtr-ritD28WPV-W0xzt-4" value="" style="endArrow=classic;html=1;rounded=0;entryX=0;entryY=0.5;entryDx=0;entryDy=0;" edge="1" parent="1">
          <mxGeometry width="50" height="50" relative="1" as="geometry">
            <mxPoint x="537" y="180" as="sourcePoint" />
            <mxPoint x="627.0000000000002" y="180" as="targetPoint" />
          </mxGeometry>
        </mxCell>
        <mxCell id="Rmtr-ritD28WPV-W0xzt-5" value="&lt;font style=&quot;font-size: 10px;&quot;&gt;REST API&lt;/font&gt;" style="text;strokeColor=none;align=center;fillColor=none;html=1;verticalAlign=middle;whiteSpace=wrap;rounded=0;" vertex="1" parent="1">
          <mxGeometry x="537" y="155" width="80" height="30" as="geometry" />
        </mxCell>
        <mxCell id="Rmtr-ritD28WPV-W0xzt-9" value="" style="endArrow=classic;html=1;rounded=0;exitX=0.5;exitY=1;exitDx=0;exitDy=0;" edge="1" parent="1" source="mobile" target="bio">
          <mxGeometry width="50" height="50" relative="1" as="geometry">
            <mxPoint x="398" y="418" as="sourcePoint" />
            <mxPoint x="448" y="368" as="targetPoint" />
          </mxGeometry>
        </mxCell>
        <mxCell id="Rmtr-ritD28WPV-W0xzt-10" value="" style="endArrow=classic;html=1;rounded=0;entryX=0;entryY=0.5;entryDx=0;entryDy=0;" edge="1" parent="1">
          <mxGeometry width="50" height="50" relative="1" as="geometry">
            <mxPoint x="59" y="180" as="sourcePoint" />
            <mxPoint x="113" y="180" as="targetPoint" />
          </mxGeometry>
        </mxCell>
        <mxCell id="Rmtr-ritD28WPV-W0xzt-11" value="" style="endArrow=classic;html=1;rounded=0;exitX=1;exitY=0.5;exitDx=0;exitDy=0;entryX=0;entryY=0.5;entryDx=0;entryDy=0;" edge="1" parent="1" source="auth" target="apigw">
          <mxGeometry width="50" height="50" relative="1" as="geometry">
            <mxPoint x="270" y="370" as="sourcePoint" />
            <mxPoint x="420" y="370" as="targetPoint" />
          </mxGeometry>
        </mxCell>
        <mxCell id="Rmtr-ritD28WPV-W0xzt-13" value="" style="endArrow=classic;html=1;rounded=0;exitX=0.5;exitY=1;exitDx=0;exitDy=0;" edge="1" parent="1" source="userkyc" target="loan">
          <mxGeometry width="50" height="50" relative="1" as="geometry">
            <mxPoint x="950" y="210" as="sourcePoint" />
            <mxPoint x="680" y="530" as="targetPoint" />
          </mxGeometry>
        </mxCell>
        <mxCell id="Rmtr-ritD28WPV-W0xzt-14" value="" style="endArrow=classic;html=1;rounded=0;exitX=0.5;exitY=1;exitDx=0;exitDy=0;" edge="1" parent="1" source="loan" target="billing">
          <mxGeometry width="50" height="50" relative="1" as="geometry">
            <mxPoint x="960" y="326" as="sourcePoint" />
            <mxPoint x="760" y="476" as="targetPoint" />
          </mxGeometry>
        </mxCell>
        <mxCell id="Rmtr-ritD28WPV-W0xzt-15" value="3rd Party Services&#xa; (eKYC, Dukcapil, AML)" style="shape=rectangle;whiteSpace=wrap;rounded=1;fillColor=light-dark(#e1d5e7, #6bb3ff);strokeColor=light-dark(#9673a6, #9fb2fe);" vertex="1" parent="1">
          <mxGeometry x="1130" y="148" width="200" height="60" as="geometry" />
        </mxCell>
        <mxCell id="Rmtr-ritD28WPV-W0xzt-16" value="Document Storage Services&#xa; (S3 + OCR)" style="shape=rectangle;whiteSpace=wrap;rounded=1;fillColor=light-dark(#e1d5e7, #6bb3ff);strokeColor=light-dark(#9673a6, #9fb2fe);" vertex="1" parent="1">
          <mxGeometry x="1130" y="264" width="200" height="60" as="geometry" />
        </mxCell>
        <mxCell id="Rmtr-ritD28WPV-W0xzt-17" value="Credit Scoring Services" style="shape=rectangle;whiteSpace=wrap;rounded=1;fillColor=light-dark(#e1d5e7, #6bb3ff);strokeColor=light-dark(#9673a6, #9fb2fe);" vertex="1" parent="1">
          <mxGeometry x="1130" y="370" width="200" height="60" as="geometry" />
        </mxCell>
        <mxCell id="Rmtr-ritD28WPV-W0xzt-18" value="Notification Services&#xa;(Email/SMS)" style="shape=rectangle;whiteSpace=wrap;rounded=1;fillColor=light-dark(#e1d5e7, #6bb3ff);strokeColor=light-dark(#9673a6, #9fb2fe);" vertex="1" parent="1">
          <mxGeometry x="1130" y="466" width="200" height="60" as="geometry" />
        </mxCell>
        <mxCell id="7igyXKNayghsl_1RYZRh-1" value="3rd Party Services&#xa; (Bank, VA, E-Wallet)" style="shape=rectangle;whiteSpace=wrap;rounded=1;fillColor=light-dark(#e1d5e7, #6bb3ff);strokeColor=light-dark(#9673a6, #9fb2fe);" vertex="1" parent="1">
          <mxGeometry x="1130" y="560" width="200" height="60" as="geometry" />
        </mxCell>
        <mxCell id="7igyXKNayghsl_1RYZRh-3" value="" style="endArrow=none;html=1;rounded=0;" edge="1" parent="1">
          <mxGeometry width="50" height="50" relative="1" as="geometry">
            <mxPoint x="800" y="560" as="sourcePoint" />
            <mxPoint x="800" y="180" as="targetPoint" />
          </mxGeometry>
        </mxCell>
        <mxCell id="7igyXKNayghsl_1RYZRh-4" value="" style="endArrow=classic;html=1;rounded=0;entryX=0;entryY=0.5;entryDx=0;entryDy=0;" edge="1" parent="1" target="userkyc">
          <mxGeometry width="50" height="50" relative="1" as="geometry">
            <mxPoint x="800" y="180" as="sourcePoint" />
            <mxPoint x="1160" y="450" as="targetPoint" />
          </mxGeometry>
        </mxCell>
        <mxCell id="7igyXKNayghsl_1RYZRh-5" value="" style="endArrow=classic;html=1;rounded=0;entryX=0;entryY=0.5;entryDx=0;entryDy=0;" edge="1" parent="1" target="loan">
          <mxGeometry width="50" height="50" relative="1" as="geometry">
            <mxPoint x="800" y="294" as="sourcePoint" />
            <mxPoint x="1160" y="450" as="targetPoint" />
          </mxGeometry>
        </mxCell>
        <mxCell id="7igyXKNayghsl_1RYZRh-6" value="" style="endArrow=classic;html=1;rounded=0;" edge="1" parent="1" target="billing">
          <mxGeometry width="50" height="50" relative="1" as="geometry">
            <mxPoint x="800" y="560" as="sourcePoint" />
            <mxPoint x="1160" y="450" as="targetPoint" />
          </mxGeometry>
        </mxCell>
        <mxCell id="7igyXKNayghsl_1RYZRh-7" value="" style="endArrow=none;html=1;rounded=0;exitX=1;exitY=0.5;exitDx=0;exitDy=0;endFill=0;" edge="1" parent="1" source="Rmtr-ritD28WPV-W0xzt-3">
          <mxGeometry width="50" height="50" relative="1" as="geometry">
            <mxPoint x="1110" y="500" as="sourcePoint" />
            <mxPoint x="800" y="180" as="targetPoint" />
          </mxGeometry>
        </mxCell>
        <mxCell id="7igyXKNayghsl_1RYZRh-8" value="" style="endArrow=classic;html=1;rounded=0;exitX=1;exitY=0.5;exitDx=0;exitDy=0;entryX=0;entryY=0.5;entryDx=0;entryDy=0;dashed=1;" edge="1" parent="1" source="userkyc" target="Rmtr-ritD28WPV-W0xzt-15">
          <mxGeometry width="50" height="50" relative="1" as="geometry">
            <mxPoint x="1110" y="500" as="sourcePoint" />
            <mxPoint x="1160" y="450" as="targetPoint" />
          </mxGeometry>
        </mxCell>
        <mxCell id="7igyXKNayghsl_1RYZRh-12" value="" style="endArrow=classic;html=1;rounded=0;exitX=1;exitY=0.5;exitDx=0;exitDy=0;entryX=0;entryY=0.5;entryDx=0;entryDy=0;dashed=1;" edge="1" parent="1" source="loan" target="Rmtr-ritD28WPV-W0xzt-18">
          <mxGeometry width="50" height="50" relative="1" as="geometry">
            <mxPoint x="1110" y="500" as="sourcePoint" />
            <mxPoint x="1160" y="450" as="targetPoint" />
            <Array as="points">
              <mxPoint x="1080" y="294" />
              <mxPoint x="1080" y="496" />
            </Array>
          </mxGeometry>
        </mxCell>
        <mxCell id="7igyXKNayghsl_1RYZRh-13" value="" style="endArrow=classic;html=1;rounded=0;entryX=0;entryY=0.5;entryDx=0;entryDy=0;dashed=1;" edge="1" parent="1" target="Rmtr-ritD28WPV-W0xzt-16">
          <mxGeometry width="50" height="50" relative="1" as="geometry">
            <mxPoint x="1080" y="294" as="sourcePoint" />
            <mxPoint x="1160" y="450" as="targetPoint" />
          </mxGeometry>
        </mxCell>
        <mxCell id="7igyXKNayghsl_1RYZRh-14" value="" style="endArrow=classic;html=1;rounded=0;entryX=0;entryY=0.5;entryDx=0;entryDy=0;dashed=1;" edge="1" parent="1" target="Rmtr-ritD28WPV-W0xzt-17">
          <mxGeometry width="50" height="50" relative="1" as="geometry">
            <mxPoint x="1080" y="400" as="sourcePoint" />
            <mxPoint x="1160" y="450" as="targetPoint" />
          </mxGeometry>
        </mxCell>
        <mxCell id="7igyXKNayghsl_1RYZRh-15" value="" style="endArrow=classic;html=1;rounded=0;exitX=1;exitY=0.5;exitDx=0;exitDy=0;entryX=0;entryY=0.75;entryDx=0;entryDy=0;dashed=1;" edge="1" parent="1" source="billing" target="Rmtr-ritD28WPV-W0xzt-18">
          <mxGeometry width="50" height="50" relative="1" as="geometry">
            <mxPoint x="1110" y="500" as="sourcePoint" />
            <mxPoint x="1160" y="450" as="targetPoint" />
            <Array as="points">
              <mxPoint x="1080" y="556" />
              <mxPoint x="1080" y="511" />
            </Array>
          </mxGeometry>
        </mxCell>
        <mxCell id="7igyXKNayghsl_1RYZRh-16" value="" style="endArrow=classic;html=1;rounded=0;entryX=0;entryY=0.5;entryDx=0;entryDy=0;dashed=1;" edge="1" parent="1" target="7igyXKNayghsl_1RYZRh-1">
          <mxGeometry width="50" height="50" relative="1" as="geometry">
            <mxPoint x="1080" y="560" as="sourcePoint" />
            <mxPoint x="1160" y="450" as="targetPoint" />
            <Array as="points">
              <mxPoint x="1080" y="590" />
            </Array>
          </mxGeometry>
        </mxCell>
        <mxCell id="7igyXKNayghsl_1RYZRh-18" value="&lt;font style=&quot;font-size: 10px;&quot;&gt;&lt;b&gt;SERVICES&lt;/b&gt;&lt;/font&gt;" style="text;strokeColor=none;align=center;fillColor=none;html=1;verticalAlign=middle;whiteSpace=wrap;rounded=0;" vertex="1" parent="1">
          <mxGeometry x="1045" y="80" width="80" height="30" as="geometry" />
        </mxCell>
        <mxCell id="7igyXKNayghsl_1RYZRh-19" value="" style="endArrow=classic;html=1;rounded=0;entryX=0;entryY=0.5;entryDx=0;entryDy=0;" edge="1" parent="1">
          <mxGeometry width="50" height="50" relative="1" as="geometry">
            <mxPoint x="1391" y="294" as="sourcePoint" />
            <mxPoint x="1492" y="294" as="targetPoint" />
          </mxGeometry>
        </mxCell>
        <mxCell id="D2dvSJBulsznXSkZjUXN-1" value="RDBMS" style="shape=cylinder;fillColor=#d5e8d4;strokeColor=#82b366;" vertex="1" parent="1">
          <mxGeometry x="813" y="840" width="100" height="60" as="geometry" />
        </mxCell>
        <mxCell id="D2dvSJBulsznXSkZjUXN-2" value="Redis Cache" style="shape=cylinder;fillColor=#d5e8d4;strokeColor=#82b366;" vertex="1" parent="1">
          <mxGeometry x="933" y="840" width="100" height="60" as="geometry" />
        </mxCell>
        <mxCell id="D2dvSJBulsznXSkZjUXN-3" value="Blob Storage &#xa;(S3)" style="shape=parallelogram;fillColor=#d5e8d4;strokeColor=#82b366;" vertex="1" parent="1">
          <mxGeometry x="1053" y="840" width="120" height="60" as="geometry" />
        </mxCell>
        <mxCell id="D2dvSJBulsznXSkZjUXN-4" value="Message Queue &#xa;(Kafka)" style="shape=parallelogram;fillColor=#d5e8d4;strokeColor=#82b366;" vertex="1" parent="1">
          <mxGeometry x="1193" y="840" width="160" height="60" as="geometry" />
        </mxCell>
        <mxCell id="D2dvSJBulsznXSkZjUXN-8" value="DATA STORAGE &amp;amp; MESSAGING" style="text;strokeColor=none;align=center;fillColor=none;html=1;verticalAlign=middle;whiteSpace=wrap;rounded=0;" vertex="1" parent="1">
          <mxGeometry x="985" y="780" width="200" height="30" as="geometry" />
        </mxCell>
        <mxCell id="D2dvSJBulsznXSkZjUXN-9" value="" style="endArrow=classic;startArrow=classic;html=1;rounded=0;entryX=0.5;entryY=1;entryDx=0;entryDy=0;exitX=0.5;exitY=0;exitDx=0;exitDy=0;" edge="1" parent="1" source="D2dvSJBulsznXSkZjUXN-6" target="7igyXKNayghsl_1RYZRh-17">
          <mxGeometry width="50" height="50" relative="1" as="geometry">
            <mxPoint x="770" y="740" as="sourcePoint" />
            <mxPoint x="820" y="690" as="targetPoint" />
          </mxGeometry>
        </mxCell>
      </root>
    </mxGraphModel>
  </diagram>
  <diagram id="KwAnYlEbRlC4kOHfBQF8" name="Page-2">
    <mxGraphModel dx="786" dy="451" grid="1" gridSize="10" guides="1" tooltips="1" connect="1" arrows="1" fold="1" page="1" pageScale="1" pageWidth="827" pageHeight="1169" math="0" shadow="0">
      <root>
        <mxCell id="0" />
        <mxCell id="1" parent="0" />
      </root>
    </mxGraphModel>
  </diagram>
</mxfile>
